<mxfile host="app.diagrams.net" modified="2023-10-18T07:56:18.001Z" agent="Mozilla/5.0 (Windows NT 10.0; Win64; x64) AppleWebKit/537.36 (KHTML, like Gecko) Chrome/118.0.0.0 Safari/537.36" etag="o_31oYkc7emcQOoY5H5Q" version="22.0.4" type="github">
  <diagram name="Page-1" id="a5ER-gciiJBCna2c69nF">
    <mxGraphModel dx="2163" dy="668" grid="1" gridSize="10" guides="1" tooltips="1" connect="1" arrows="1" fold="1" page="1" pageScale="1" pageWidth="850" pageHeight="1100" math="0" shadow="0">
      <root>
        <mxCell id="0" />
        <mxCell id="1" parent="0" />
        <mxCell id="qIl7mzaUXhB3daMfOe8W-2" value="Products" style="whiteSpace=wrap;html=1;align=center;fillColor=#d80073;fontColor=#ffffff;strokeColor=#A50040;" vertex="1" parent="1">
          <mxGeometry x="560" y="600" width="100" height="40" as="geometry" />
        </mxCell>
        <mxCell id="qIl7mzaUXhB3daMfOe8W-3" value="price" style="ellipse;whiteSpace=wrap;html=1;align=center;" vertex="1" parent="1">
          <mxGeometry x="560" y="410" width="100" height="40" as="geometry" />
        </mxCell>
        <mxCell id="qIl7mzaUXhB3daMfOe8W-6" value="productID" style="ellipse;whiteSpace=wrap;html=1;align=center;fontStyle=4;fillColor=#1ba1e2;fontColor=#ffffff;strokeColor=#006EAF;" vertex="1" parent="1">
          <mxGeometry x="410" y="470" width="100" height="40" as="geometry" />
        </mxCell>
        <mxCell id="qIl7mzaUXhB3daMfOe8W-7" value="invetory" style="ellipse;whiteSpace=wrap;html=1;align=center;" vertex="1" parent="1">
          <mxGeometry x="700" y="450" width="100" height="40" as="geometry" />
        </mxCell>
        <mxCell id="qIl7mzaUXhB3daMfOe8W-10" value="productName" style="ellipse;whiteSpace=wrap;html=1;align=center;" vertex="1" parent="1">
          <mxGeometry x="770" y="560" width="100" height="40" as="geometry" />
        </mxCell>
        <mxCell id="qIl7mzaUXhB3daMfOe8W-11" value="description" style="ellipse;whiteSpace=wrap;html=1;align=center;" vertex="1" parent="1">
          <mxGeometry x="750" y="490" width="100" height="40" as="geometry" />
        </mxCell>
        <mxCell id="qIl7mzaUXhB3daMfOe8W-29" value="publisher" style="ellipse;whiteSpace=wrap;html=1;align=center;" vertex="1" parent="1">
          <mxGeometry x="90" y="900" width="100" height="40" as="geometry" />
        </mxCell>
        <mxCell id="qIl7mzaUXhB3daMfOe8W-30" value="year" style="ellipse;whiteSpace=wrap;html=1;align=center;" vertex="1" parent="1">
          <mxGeometry x="190" y="1020" width="100" height="40" as="geometry" />
        </mxCell>
        <mxCell id="qIl7mzaUXhB3daMfOe8W-31" value="authors" style="ellipse;whiteSpace=wrap;html=1;align=center;" vertex="1" parent="1">
          <mxGeometry x="110" y="770" width="100" height="40" as="geometry" />
        </mxCell>
        <mxCell id="qIl7mzaUXhB3daMfOe8W-36" value="dob" style="ellipse;whiteSpace=wrap;html=1;align=center;" vertex="1" parent="1">
          <mxGeometry x="190" y="650" width="100" height="40" as="geometry" />
        </mxCell>
        <mxCell id="qIl7mzaUXhB3daMfOe8W-37" value="pen-name" style="ellipse;whiteSpace=wrap;html=1;align=center;" vertex="1" parent="1">
          <mxGeometry x="-20" y="660" width="100" height="40" as="geometry" />
        </mxCell>
        <mxCell id="qIl7mzaUXhB3daMfOe8W-38" value="authorName" style="ellipse;whiteSpace=wrap;html=1;align=center;" vertex="1" parent="1">
          <mxGeometry x="70" y="580" width="100" height="40" as="geometry" />
        </mxCell>
        <mxCell id="qIl7mzaUXhB3daMfOe8W-44" value="address" style="ellipse;whiteSpace=wrap;html=1;align=center;" vertex="1" parent="1">
          <mxGeometry x="-150" y="780" width="100" height="40" as="geometry" />
        </mxCell>
        <mxCell id="qIl7mzaUXhB3daMfOe8W-45" value="publiserName" style="ellipse;whiteSpace=wrap;html=1;align=center;" vertex="1" parent="1">
          <mxGeometry x="-200" y="870" width="100" height="40" as="geometry" />
        </mxCell>
        <mxCell id="qIl7mzaUXhB3daMfOe8W-46" value="phoneNum" style="ellipse;whiteSpace=wrap;html=1;align=center;" vertex="1" parent="1">
          <mxGeometry x="-110" y="1060" width="100" height="40" as="geometry" />
        </mxCell>
        <mxCell id="qIl7mzaUXhB3daMfOe8W-47" value="publisherID" style="ellipse;whiteSpace=wrap;html=1;align=center;fontStyle=4;fillColor=#1ba1e2;fontColor=#ffffff;strokeColor=#006EAF;" vertex="1" parent="1">
          <mxGeometry x="-170" y="960" width="100" height="40" as="geometry" />
        </mxCell>
        <mxCell id="qIl7mzaUXhB3daMfOe8W-52" value="size" style="ellipse;whiteSpace=wrap;html=1;align=center;" vertex="1" parent="1">
          <mxGeometry x="480" y="1050" width="100" height="40" as="geometry" />
        </mxCell>
        <mxCell id="qIl7mzaUXhB3daMfOe8W-54" value="material" style="ellipse;whiteSpace=wrap;html=1;align=center;" vertex="1" parent="1">
          <mxGeometry x="620" y="1070" width="100" height="40" as="geometry" />
        </mxCell>
        <mxCell id="qIl7mzaUXhB3daMfOe8W-55" value="color" style="ellipse;whiteSpace=wrap;html=1;align=center;" vertex="1" parent="1">
          <mxGeometry x="760" y="1040" width="100" height="40" as="geometry" />
        </mxCell>
        <mxCell id="qIl7mzaUXhB3daMfOe8W-83" value="" style="endArrow=none;html=1;rounded=0;entryX=0.5;entryY=0;entryDx=0;entryDy=0;exitX=1;exitY=1;exitDx=0;exitDy=0;" edge="1" parent="1" source="qIl7mzaUXhB3daMfOe8W-6" target="qIl7mzaUXhB3daMfOe8W-2">
          <mxGeometry relative="1" as="geometry">
            <mxPoint x="360" y="590" as="sourcePoint" />
            <mxPoint x="520" y="590" as="targetPoint" />
          </mxGeometry>
        </mxCell>
        <mxCell id="qIl7mzaUXhB3daMfOe8W-84" value="" style="endArrow=none;html=1;rounded=0;" edge="1" parent="1" source="qIl7mzaUXhB3daMfOe8W-2" target="qIl7mzaUXhB3daMfOe8W-3">
          <mxGeometry relative="1" as="geometry">
            <mxPoint x="530" y="530" as="sourcePoint" />
            <mxPoint x="690" y="530" as="targetPoint" />
          </mxGeometry>
        </mxCell>
        <mxCell id="qIl7mzaUXhB3daMfOe8W-87" value="" style="endArrow=none;html=1;rounded=0;exitX=1;exitY=0.5;exitDx=0;exitDy=0;entryX=0;entryY=0.5;entryDx=0;entryDy=0;" edge="1" parent="1" source="qIl7mzaUXhB3daMfOe8W-2" target="qIl7mzaUXhB3daMfOe8W-10">
          <mxGeometry relative="1" as="geometry">
            <mxPoint x="630" y="660" as="sourcePoint" />
            <mxPoint x="790" y="660" as="targetPoint" />
          </mxGeometry>
        </mxCell>
        <mxCell id="qIl7mzaUXhB3daMfOe8W-88" value="" style="endArrow=none;html=1;rounded=0;exitX=0.5;exitY=0;exitDx=0;exitDy=0;entryX=0;entryY=1;entryDx=0;entryDy=0;" edge="1" parent="1" source="qIl7mzaUXhB3daMfOe8W-2" target="qIl7mzaUXhB3daMfOe8W-7">
          <mxGeometry relative="1" as="geometry">
            <mxPoint x="570" y="540" as="sourcePoint" />
            <mxPoint x="730" y="540" as="targetPoint" />
          </mxGeometry>
        </mxCell>
        <mxCell id="qIl7mzaUXhB3daMfOe8W-89" value="" style="endArrow=none;html=1;rounded=0;entryX=0;entryY=1;entryDx=0;entryDy=0;exitX=1;exitY=0.5;exitDx=0;exitDy=0;" edge="1" parent="1" source="qIl7mzaUXhB3daMfOe8W-2" target="qIl7mzaUXhB3daMfOe8W-11">
          <mxGeometry relative="1" as="geometry">
            <mxPoint x="660" y="580" as="sourcePoint" />
            <mxPoint x="820" y="580" as="targetPoint" />
          </mxGeometry>
        </mxCell>
        <mxCell id="qIl7mzaUXhB3daMfOe8W-93" value="" style="endArrow=none;html=1;rounded=0;exitX=1;exitY=0.5;exitDx=0;exitDy=0;entryX=0;entryY=0.25;entryDx=0;entryDy=0;" edge="1" parent="1" source="qIl7mzaUXhB3daMfOe8W-31" target="qIl7mzaUXhB3daMfOe8W-141">
          <mxGeometry relative="1" as="geometry">
            <mxPoint x="180" y="830" as="sourcePoint" />
            <mxPoint x="351.1411818038455" y="835.7514071133778" as="targetPoint" />
          </mxGeometry>
        </mxCell>
        <mxCell id="qIl7mzaUXhB3daMfOe8W-94" value="" style="endArrow=none;html=1;rounded=0;entryX=0;entryY=0.25;entryDx=0;entryDy=0;" edge="1" parent="1" source="qIl7mzaUXhB3daMfOe8W-30" target="qIl7mzaUXhB3daMfOe8W-141">
          <mxGeometry relative="1" as="geometry">
            <mxPoint x="240" y="990" as="sourcePoint" />
            <mxPoint x="350" y="840" as="targetPoint" />
          </mxGeometry>
        </mxCell>
        <mxCell id="qIl7mzaUXhB3daMfOe8W-95" value="" style="endArrow=none;html=1;rounded=0;entryX=0.5;entryY=1;entryDx=0;entryDy=0;" edge="1" parent="1" source="qIl7mzaUXhB3daMfOe8W-52" target="qIl7mzaUXhB3daMfOe8W-146">
          <mxGeometry relative="1" as="geometry">
            <mxPoint x="410" y="1000" as="sourcePoint" />
            <mxPoint x="620" y="880" as="targetPoint" />
          </mxGeometry>
        </mxCell>
        <mxCell id="qIl7mzaUXhB3daMfOe8W-96" value="" style="endArrow=none;html=1;rounded=0;entryX=0.5;entryY=1;entryDx=0;entryDy=0;" edge="1" parent="1" source="qIl7mzaUXhB3daMfOe8W-54" target="qIl7mzaUXhB3daMfOe8W-146">
          <mxGeometry relative="1" as="geometry">
            <mxPoint x="480" y="1080" as="sourcePoint" />
            <mxPoint x="620" y="850" as="targetPoint" />
          </mxGeometry>
        </mxCell>
        <mxCell id="qIl7mzaUXhB3daMfOe8W-97" value="" style="endArrow=none;html=1;rounded=0;exitX=0.5;exitY=1;exitDx=0;exitDy=0;" edge="1" parent="1" source="qIl7mzaUXhB3daMfOe8W-146" target="qIl7mzaUXhB3daMfOe8W-55">
          <mxGeometry relative="1" as="geometry">
            <mxPoint x="620" y="880" as="sourcePoint" />
            <mxPoint x="710" y="1030" as="targetPoint" />
          </mxGeometry>
        </mxCell>
        <mxCell id="qIl7mzaUXhB3daMfOe8W-100" value="" style="endArrow=none;html=1;rounded=0;exitX=0.5;exitY=0;exitDx=0;exitDy=0;" edge="1" parent="1" source="qIl7mzaUXhB3daMfOe8W-31" target="qIl7mzaUXhB3daMfOe8W-38">
          <mxGeometry relative="1" as="geometry">
            <mxPoint x="180" y="650" as="sourcePoint" />
            <mxPoint x="300" y="700" as="targetPoint" />
          </mxGeometry>
        </mxCell>
        <mxCell id="qIl7mzaUXhB3daMfOe8W-101" value="" style="endArrow=none;html=1;rounded=0;exitX=0.5;exitY=0;exitDx=0;exitDy=0;" edge="1" parent="1" source="qIl7mzaUXhB3daMfOe8W-31" target="qIl7mzaUXhB3daMfOe8W-36">
          <mxGeometry relative="1" as="geometry">
            <mxPoint x="180" y="650" as="sourcePoint" />
            <mxPoint x="280" y="580" as="targetPoint" />
          </mxGeometry>
        </mxCell>
        <mxCell id="qIl7mzaUXhB3daMfOe8W-102" value="" style="endArrow=none;html=1;rounded=0;exitX=1;exitY=0.5;exitDx=0;exitDy=0;entryX=0.5;entryY=0;entryDx=0;entryDy=0;" edge="1" parent="1" source="qIl7mzaUXhB3daMfOe8W-37" target="qIl7mzaUXhB3daMfOe8W-31">
          <mxGeometry relative="1" as="geometry">
            <mxPoint x="75.14552060384221" y="717.9544321365403" as="sourcePoint" />
            <mxPoint x="190" y="699.9973284192666" as="targetPoint" />
          </mxGeometry>
        </mxCell>
        <mxCell id="qIl7mzaUXhB3daMfOe8W-113" value="others" style="ellipse;whiteSpace=wrap;html=1;align=center;" vertex="1" parent="1">
          <mxGeometry x="740" y="810" width="100" height="40" as="geometry" />
        </mxCell>
        <mxCell id="qIl7mzaUXhB3daMfOe8W-118" value="" style="endArrow=none;html=1;rounded=0;entryX=0;entryY=0.5;entryDx=0;entryDy=0;" edge="1" parent="1" source="qIl7mzaUXhB3daMfOe8W-45" target="qIl7mzaUXhB3daMfOe8W-29">
          <mxGeometry relative="1" as="geometry">
            <mxPoint x="-100" y="890" as="sourcePoint" />
            <mxPoint x="60" y="890" as="targetPoint" />
          </mxGeometry>
        </mxCell>
        <mxCell id="qIl7mzaUXhB3daMfOe8W-120" value="" style="endArrow=none;html=1;rounded=0;exitX=1;exitY=0.5;exitDx=0;exitDy=0;entryX=0;entryY=0.5;entryDx=0;entryDy=0;" edge="1" parent="1" source="qIl7mzaUXhB3daMfOe8W-47" target="qIl7mzaUXhB3daMfOe8W-29">
          <mxGeometry relative="1" as="geometry">
            <mxPoint x="-60" y="969.41" as="sourcePoint" />
            <mxPoint x="100" y="969.41" as="targetPoint" />
          </mxGeometry>
        </mxCell>
        <mxCell id="qIl7mzaUXhB3daMfOe8W-121" value="" style="endArrow=none;html=1;rounded=0;exitX=1;exitY=0.5;exitDx=0;exitDy=0;entryX=0;entryY=0.5;entryDx=0;entryDy=0;" edge="1" parent="1" source="qIl7mzaUXhB3daMfOe8W-44" target="qIl7mzaUXhB3daMfOe8W-29">
          <mxGeometry relative="1" as="geometry">
            <mxPoint x="-70" y="870" as="sourcePoint" />
            <mxPoint x="90" y="870" as="targetPoint" />
          </mxGeometry>
        </mxCell>
        <mxCell id="qIl7mzaUXhB3daMfOe8W-122" value="" style="endArrow=none;html=1;rounded=0;exitX=1;exitY=0.5;exitDx=0;exitDy=0;entryX=0;entryY=0.5;entryDx=0;entryDy=0;" edge="1" parent="1" source="qIl7mzaUXhB3daMfOe8W-46" target="qIl7mzaUXhB3daMfOe8W-29">
          <mxGeometry relative="1" as="geometry">
            <mxPoint x="30" y="1040" as="sourcePoint" />
            <mxPoint x="190" y="1040" as="targetPoint" />
          </mxGeometry>
        </mxCell>
        <mxCell id="qIl7mzaUXhB3daMfOe8W-126" value="Customer" style="whiteSpace=wrap;html=1;align=center;fillColor=#6a00ff;fontColor=#ffffff;strokeColor=#3700CC;" vertex="1" parent="1">
          <mxGeometry x="1090" y="670" width="100" height="40" as="geometry" />
        </mxCell>
        <mxCell id="qIl7mzaUXhB3daMfOe8W-127" value="billID" style="ellipse;whiteSpace=wrap;html=1;align=center;fontStyle=4;fillColor=#1ba1e2;fontColor=#ffffff;strokeColor=#006EAF;" vertex="1" parent="1">
          <mxGeometry x="1330" y="550" width="100" height="40" as="geometry" />
        </mxCell>
        <mxCell id="qIl7mzaUXhB3daMfOe8W-128" value="shopMoney" style="ellipse;whiteSpace=wrap;html=1;align=center;" vertex="1" parent="1">
          <mxGeometry x="1330" y="790" width="100" height="40" as="geometry" />
        </mxCell>
        <mxCell id="qIl7mzaUXhB3daMfOe8W-129" value="cusMoney" style="ellipse;whiteSpace=wrap;html=1;align=center;" vertex="1" parent="1">
          <mxGeometry x="1250" y="920" width="100" height="40" as="geometry" />
        </mxCell>
        <mxCell id="qIl7mzaUXhB3daMfOe8W-130" value="date" style="ellipse;whiteSpace=wrap;html=1;align=center;" vertex="1" parent="1">
          <mxGeometry x="1170" y="440" width="100" height="40" as="geometry" />
        </mxCell>
        <mxCell id="qIl7mzaUXhB3daMfOe8W-131" value="totalMoney" style="ellipse;whiteSpace=wrap;html=1;align=center;" vertex="1" parent="1">
          <mxGeometry x="1320" y="450" width="100" height="40" as="geometry" />
        </mxCell>
        <mxCell id="qIl7mzaUXhB3daMfOe8W-132" value="" style="endArrow=none;html=1;rounded=0;entryX=1;entryY=0.5;entryDx=0;entryDy=0;" edge="1" parent="1" source="qIl7mzaUXhB3daMfOe8W-127" target="qIl7mzaUXhB3daMfOe8W-126">
          <mxGeometry relative="1" as="geometry">
            <mxPoint x="20" y="1370" as="sourcePoint" />
            <mxPoint x="1140" y="640" as="targetPoint" />
          </mxGeometry>
        </mxCell>
        <mxCell id="qIl7mzaUXhB3daMfOe8W-133" value="" style="endArrow=none;html=1;rounded=0;exitX=1;exitY=0.5;exitDx=0;exitDy=0;" edge="1" parent="1" source="qIl7mzaUXhB3daMfOe8W-126" target="qIl7mzaUXhB3daMfOe8W-131">
          <mxGeometry relative="1" as="geometry">
            <mxPoint x="390" y="1340" as="sourcePoint" />
            <mxPoint x="510" y="1460" as="targetPoint" />
          </mxGeometry>
        </mxCell>
        <mxCell id="qIl7mzaUXhB3daMfOe8W-134" value="" style="endArrow=none;html=1;rounded=0;exitX=1;exitY=0.5;exitDx=0;exitDy=0;" edge="1" parent="1" source="qIl7mzaUXhB3daMfOe8W-126" target="qIl7mzaUXhB3daMfOe8W-130">
          <mxGeometry relative="1" as="geometry">
            <mxPoint x="310" y="1450" as="sourcePoint" />
            <mxPoint x="470" y="1450" as="targetPoint" />
          </mxGeometry>
        </mxCell>
        <mxCell id="qIl7mzaUXhB3daMfOe8W-135" value="" style="endArrow=none;html=1;rounded=0;exitX=1;exitY=0.5;exitDx=0;exitDy=0;entryX=0.5;entryY=0;entryDx=0;entryDy=0;" edge="1" parent="1" source="qIl7mzaUXhB3daMfOe8W-126" target="qIl7mzaUXhB3daMfOe8W-128">
          <mxGeometry relative="1" as="geometry">
            <mxPoint x="480" y="1340" as="sourcePoint" />
            <mxPoint x="640" y="1340" as="targetPoint" />
          </mxGeometry>
        </mxCell>
        <mxCell id="qIl7mzaUXhB3daMfOe8W-136" value="" style="endArrow=none;html=1;rounded=0;exitX=1;exitY=0.5;exitDx=0;exitDy=0;entryX=0;entryY=0.5;entryDx=0;entryDy=0;" edge="1" parent="1" source="qIl7mzaUXhB3daMfOe8W-126" target="qIl7mzaUXhB3daMfOe8W-129">
          <mxGeometry relative="1" as="geometry">
            <mxPoint x="390" y="1400" as="sourcePoint" />
            <mxPoint x="550" y="1400" as="targetPoint" />
          </mxGeometry>
        </mxCell>
        <mxCell id="qIl7mzaUXhB3daMfOe8W-140" value="type" style="shape=rhombus;perimeter=rhombusPerimeter;whiteSpace=wrap;html=1;align=center;fillColor=#008a00;fontColor=#ffffff;strokeColor=#005700;" vertex="1" parent="1">
          <mxGeometry x="550" y="700" width="120" height="60" as="geometry" />
        </mxCell>
        <mxCell id="qIl7mzaUXhB3daMfOe8W-141" value="Books" style="whiteSpace=wrap;html=1;align=center;fillColor=#d80073;fontColor=#ffffff;strokeColor=#A50040;" vertex="1" parent="1">
          <mxGeometry x="310" y="860" width="100" height="40" as="geometry" />
        </mxCell>
        <mxCell id="qIl7mzaUXhB3daMfOe8W-142" value="" style="endArrow=none;html=1;rounded=0;entryX=0;entryY=0.25;entryDx=0;entryDy=0;" edge="1" parent="1" source="qIl7mzaUXhB3daMfOe8W-29" target="qIl7mzaUXhB3daMfOe8W-141">
          <mxGeometry relative="1" as="geometry">
            <mxPoint x="170" y="890" as="sourcePoint" />
            <mxPoint x="330" y="890" as="targetPoint" />
          </mxGeometry>
        </mxCell>
        <mxCell id="qIl7mzaUXhB3daMfOe8W-146" value="Bags" style="whiteSpace=wrap;html=1;align=center;fillColor=#d80073;fontColor=#ffffff;strokeColor=#A50040;" vertex="1" parent="1">
          <mxGeometry x="590" y="860" width="100" height="40" as="geometry" />
        </mxCell>
        <mxCell id="qIl7mzaUXhB3daMfOe8W-149" value="" style="endArrow=none;html=1;rounded=0;exitX=0.5;exitY=1;exitDx=0;exitDy=0;" edge="1" parent="1" source="qIl7mzaUXhB3daMfOe8W-2" target="qIl7mzaUXhB3daMfOe8W-140">
          <mxGeometry relative="1" as="geometry">
            <mxPoint x="620" y="680" as="sourcePoint" />
            <mxPoint x="780" y="680" as="targetPoint" />
          </mxGeometry>
        </mxCell>
        <mxCell id="qIl7mzaUXhB3daMfOe8W-150" value="1" style="resizable=0;html=1;whiteSpace=wrap;align=right;verticalAlign=bottom;" connectable="0" vertex="1" parent="qIl7mzaUXhB3daMfOe8W-149">
          <mxGeometry x="1" relative="1" as="geometry" />
        </mxCell>
        <mxCell id="qIl7mzaUXhB3daMfOe8W-151" value="buy" style="shape=rhombus;perimeter=rhombusPerimeter;whiteSpace=wrap;html=1;align=center;fillColor=#008a00;fontColor=#ffffff;strokeColor=#005700;" vertex="1" parent="1">
          <mxGeometry x="840" y="650" width="120" height="60" as="geometry" />
        </mxCell>
        <mxCell id="qIl7mzaUXhB3daMfOe8W-152" value="" style="endArrow=none;html=1;rounded=0;entryX=0.089;entryY=0.586;entryDx=0;entryDy=0;entryPerimeter=0;" edge="1" parent="1" source="qIl7mzaUXhB3daMfOe8W-2" target="qIl7mzaUXhB3daMfOe8W-151">
          <mxGeometry relative="1" as="geometry">
            <mxPoint x="700" y="680" as="sourcePoint" />
            <mxPoint x="860" y="680" as="targetPoint" />
          </mxGeometry>
        </mxCell>
        <mxCell id="qIl7mzaUXhB3daMfOe8W-153" value="N" style="resizable=0;html=1;whiteSpace=wrap;align=right;verticalAlign=bottom;" connectable="0" vertex="1" parent="qIl7mzaUXhB3daMfOe8W-152">
          <mxGeometry x="1" relative="1" as="geometry">
            <mxPoint x="-10" y="20" as="offset" />
          </mxGeometry>
        </mxCell>
        <mxCell id="qIl7mzaUXhB3daMfOe8W-154" value="" style="endArrow=none;html=1;rounded=0;entryX=1;entryY=0.5;entryDx=0;entryDy=0;" edge="1" parent="1" source="qIl7mzaUXhB3daMfOe8W-126" target="qIl7mzaUXhB3daMfOe8W-151">
          <mxGeometry relative="1" as="geometry">
            <mxPoint x="940" y="640" as="sourcePoint" />
            <mxPoint x="1100" y="640" as="targetPoint" />
          </mxGeometry>
        </mxCell>
        <mxCell id="qIl7mzaUXhB3daMfOe8W-155" value="N" style="resizable=0;html=1;whiteSpace=wrap;align=right;verticalAlign=bottom;" connectable="0" vertex="1" parent="qIl7mzaUXhB3daMfOe8W-154">
          <mxGeometry x="1" relative="1" as="geometry" />
        </mxCell>
        <mxCell id="qIl7mzaUXhB3daMfOe8W-156" value="" style="endArrow=none;html=1;rounded=0;entryX=0.5;entryY=1;entryDx=0;entryDy=0;" edge="1" parent="1" source="qIl7mzaUXhB3daMfOe8W-146" target="qIl7mzaUXhB3daMfOe8W-140">
          <mxGeometry relative="1" as="geometry">
            <mxPoint x="540" y="810" as="sourcePoint" />
            <mxPoint x="700" y="810" as="targetPoint" />
          </mxGeometry>
        </mxCell>
        <mxCell id="qIl7mzaUXhB3daMfOe8W-157" value="N" style="resizable=0;html=1;whiteSpace=wrap;align=right;verticalAlign=bottom;" connectable="0" vertex="1" parent="qIl7mzaUXhB3daMfOe8W-156">
          <mxGeometry x="1" relative="1" as="geometry" />
        </mxCell>
        <mxCell id="qIl7mzaUXhB3daMfOe8W-158" value="" style="endArrow=none;html=1;rounded=0;entryX=0;entryY=0.5;entryDx=0;entryDy=0;exitX=0.5;exitY=0;exitDx=0;exitDy=0;" edge="1" parent="1" source="qIl7mzaUXhB3daMfOe8W-141" target="qIl7mzaUXhB3daMfOe8W-140">
          <mxGeometry relative="1" as="geometry">
            <mxPoint x="410" y="800" as="sourcePoint" />
            <mxPoint x="570" y="800" as="targetPoint" />
          </mxGeometry>
        </mxCell>
        <mxCell id="qIl7mzaUXhB3daMfOe8W-159" value="N" style="resizable=0;html=1;whiteSpace=wrap;align=right;verticalAlign=bottom;" connectable="0" vertex="1" parent="qIl7mzaUXhB3daMfOe8W-158">
          <mxGeometry x="1" relative="1" as="geometry" />
        </mxCell>
        <mxCell id="qIl7mzaUXhB3daMfOe8W-160" value="" style="endArrow=none;html=1;rounded=0;entryX=1;entryY=0.5;entryDx=0;entryDy=0;exitX=0.5;exitY=0;exitDx=0;exitDy=0;" edge="1" parent="1" source="qIl7mzaUXhB3daMfOe8W-113" target="qIl7mzaUXhB3daMfOe8W-140">
          <mxGeometry relative="1" as="geometry">
            <mxPoint x="690" y="780" as="sourcePoint" />
            <mxPoint x="850" y="780" as="targetPoint" />
          </mxGeometry>
        </mxCell>
        <mxCell id="qIl7mzaUXhB3daMfOe8W-161" value="N" style="resizable=0;html=1;whiteSpace=wrap;align=right;verticalAlign=bottom;" connectable="0" vertex="1" parent="qIl7mzaUXhB3daMfOe8W-160">
          <mxGeometry x="1" relative="1" as="geometry" />
        </mxCell>
        <mxCell id="qIl7mzaUXhB3daMfOe8W-165" value="giá" style="ellipse;whiteSpace=wrap;html=1;align=center;" vertex="1" parent="1">
          <mxGeometry x="1070" y="870" width="100" height="50" as="geometry" />
        </mxCell>
        <mxCell id="qIl7mzaUXhB3daMfOe8W-166" value="hàng đã bán" style="ellipse;whiteSpace=wrap;html=1;align=center;" vertex="1" parent="1">
          <mxGeometry x="860" y="920" width="100" height="40" as="geometry" />
        </mxCell>
        <mxCell id="qIl7mzaUXhB3daMfOe8W-173" value="information" style="whiteSpace=wrap;html=1;align=center;fillColor=#d80073;fontColor=#ffffff;strokeColor=#A50040;" vertex="1" parent="1">
          <mxGeometry x="950" y="780" width="100" height="40" as="geometry" />
        </mxCell>
        <mxCell id="qIl7mzaUXhB3daMfOe8W-176" value="" style="endArrow=none;html=1;rounded=0;exitX=0.5;exitY=0;exitDx=0;exitDy=0;" edge="1" parent="1" source="qIl7mzaUXhB3daMfOe8W-166" target="qIl7mzaUXhB3daMfOe8W-173">
          <mxGeometry relative="1" as="geometry">
            <mxPoint x="970" y="1040" as="sourcePoint" />
            <mxPoint x="1130" y="1040" as="targetPoint" />
          </mxGeometry>
        </mxCell>
        <mxCell id="qIl7mzaUXhB3daMfOe8W-177" value="" style="endArrow=none;html=1;rounded=0;exitX=0.25;exitY=1;exitDx=0;exitDy=0;" edge="1" parent="1" source="qIl7mzaUXhB3daMfOe8W-173" target="qIl7mzaUXhB3daMfOe8W-165">
          <mxGeometry relative="1" as="geometry">
            <mxPoint x="1000" y="840" as="sourcePoint" />
            <mxPoint x="1160" y="840" as="targetPoint" />
          </mxGeometry>
        </mxCell>
        <mxCell id="qIl7mzaUXhB3daMfOe8W-178" value="" style="endArrow=none;html=1;rounded=0;entryX=0.5;entryY=1;entryDx=0;entryDy=0;" edge="1" parent="1" source="qIl7mzaUXhB3daMfOe8W-173" target="qIl7mzaUXhB3daMfOe8W-151">
          <mxGeometry relative="1" as="geometry">
            <mxPoint x="870" y="760" as="sourcePoint" />
            <mxPoint x="1030" y="760" as="targetPoint" />
          </mxGeometry>
        </mxCell>
        <mxCell id="qIl7mzaUXhB3daMfOe8W-179" value="1" style="resizable=0;html=1;whiteSpace=wrap;align=right;verticalAlign=bottom;" connectable="0" vertex="1" parent="qIl7mzaUXhB3daMfOe8W-178">
          <mxGeometry x="1" relative="1" as="geometry" />
        </mxCell>
      </root>
    </mxGraphModel>
  </diagram>
</mxfile>
